<svg width="213" height="150" viewBox="0 0 213 150" fill="none" xmlns="http://www.w3.org/2000/svg">
<path d="M120.922 24.5185L96.0062 0.56082C95.6319 0.200985 95.1329 0 94.6138 0H77.242C75.4423 0 74.5506 2.18455 75.8363 3.44398L118.124 44.8687C119.395 46.1141 121.539 45.2134 121.539 43.4336V25.9666C121.539 25.4201 121.316 24.8972 120.922 24.5185Z" fill="#465C68"/>
<path d="M84.8083 20.9301L69.3072 5.02226C68.9365 4.65159 68.3027 4.91412 68.3027 5.43832V58.4305C68.3027 58.9633 68.5144 59.4743 68.8911 59.8511L84.79 75.7499C85.1667 76.1267 85.6777 76.3383 86.2105 76.3383H102.775C104.543 76.3383 105.449 74.2187 104.227 72.9408L85.9356 53.8185C85.578 53.4446 85.3784 52.9472 85.3784 52.4299V22.3321C85.3784 21.8083 85.1738 21.3053 84.8083 20.9301Z" fill="#C17DCD"/>
<path d="M91.4051 49.3905V32.9746C91.4051 31.1848 93.569 30.2885 94.8345 31.5541L136.189 72.9089C137.455 74.1745 136.559 76.3383 134.769 76.3383H118.353C117.82 76.3383 117.309 76.1267 116.932 75.7499L91.9935 50.811C91.6168 50.4342 91.4051 49.9233 91.4051 49.3905Z" fill="#465C68"/>
<path d="M127.738 0H106.472C105.745 0 105.389 0.886211 105.915 1.3886L126.945 21.5046C127.341 21.8836 127.565 22.408 127.565 22.9563V53.4083C127.565 53.9411 127.777 54.4521 128.154 54.8288L141.212 67.8867C142.477 69.1522 144.641 68.2559 144.641 66.4662V16.9033C144.641 16.3706 144.429 15.8596 144.053 15.4828L129.158 0.588394C128.781 0.211652 128.271 0 127.738 0Z" fill="#C17DCD"/>
<path d="M27.0479 121.338C26.3407 120.149 25.5211 118.815 24.589 117.337C23.689 115.858 22.7087 114.331 21.6479 112.756C20.5872 111.149 19.4783 109.526 18.3212 107.887C17.1962 106.247 16.0712 104.672 14.9462 103.162C13.8213 101.619 12.7284 100.173 11.6677 98.8225C10.607 97.4726 9.62667 96.2833 8.72668 95.2547V121.338H4.14638V87.9263H7.85883C9.36953 89.5334 10.9767 91.4137 12.6802 93.5673C14.4159 95.6887 16.1194 97.8904 17.7909 100.173C19.4944 102.423 21.0855 104.64 22.564 106.826C24.0747 109.012 25.3443 110.956 26.3729 112.66V87.9263H30.9532V121.338H27.0479ZM36.572 108.851C36.572 106.633 36.8934 104.705 37.5362 103.065C38.1791 101.394 39.0309 100.012 40.0916 98.919C41.1523 97.8261 42.3737 97.0065 43.7558 96.4601C45.1379 95.9137 46.5522 95.6404 47.9986 95.6404C51.3736 95.6404 53.961 96.7011 55.761 98.8225C57.561 100.912 58.461 104.11 58.461 108.417C58.461 108.61 58.461 108.867 58.461 109.188C58.461 109.478 58.4449 109.751 58.4128 110.008H41.2487C41.4415 112.612 42.1969 114.588 43.5147 115.938C44.8326 117.288 46.8897 117.963 49.6861 117.963C51.2611 117.963 52.5789 117.835 53.6396 117.578C54.7325 117.288 55.5521 117.015 56.0985 116.758L56.7253 120.519C56.1789 120.808 55.2146 121.113 53.8325 121.435C52.4825 121.756 50.9396 121.917 49.204 121.917C47.0183 121.917 45.1219 121.595 43.5147 120.953C41.9398 120.278 40.638 119.362 39.6094 118.204C38.5809 117.047 37.8095 115.681 37.2952 114.106C36.813 112.499 36.572 110.747 36.572 108.851ZM53.7843 106.392C53.8164 104.367 53.3021 102.712 52.2414 101.426C51.2129 100.108 49.7825 99.4493 47.9504 99.4493C46.9218 99.4493 46.0058 99.6582 45.2022 100.076C44.4308 100.462 43.7719 100.976 43.2255 101.619C42.679 102.262 42.2451 103.001 41.9237 103.837C41.6344 104.672 41.4415 105.524 41.3451 106.392H53.7843ZM73.1948 95.7369C73.5805 95.7369 74.0144 95.769 74.4966 95.8333C75.0108 95.8654 75.509 95.9297 75.9912 96.0262C76.4733 96.0904 76.9072 96.1708 77.293 96.2672C77.7108 96.3315 78.0162 96.3958 78.209 96.4601L77.4376 100.365C77.084 100.237 76.4894 100.092 75.6537 99.9315C74.8501 99.7386 73.8055 99.6422 72.5198 99.6422C71.6841 99.6422 70.8484 99.7386 70.0127 99.9315C69.2091 100.092 68.6788 100.205 68.4216 100.269V121.338H63.9378V97.3279C64.9985 96.9422 66.3163 96.5886 67.8913 96.2672C69.4663 95.9137 71.2341 95.7369 73.1948 95.7369ZM97.7713 101.571C97.2249 101.121 96.4374 100.687 95.4089 100.269C94.3803 99.8511 93.2553 99.6422 92.0339 99.6422C90.7482 99.6422 89.6393 99.8832 88.7072 100.365C87.8072 100.815 87.0679 101.458 86.4893 102.294C85.9108 103.097 85.4929 104.062 85.2358 105.187C84.9786 106.312 84.8501 107.517 84.8501 108.803C84.8501 111.728 85.5733 113.994 87.0197 115.601C88.4661 117.176 90.3946 117.963 92.8053 117.963C94.0267 117.963 95.0392 117.915 95.8428 117.819C96.6785 117.69 97.3213 117.562 97.7713 117.433V101.571ZM97.7713 84.6959L102.255 83.9245V120.615C101.227 120.904 99.9088 121.194 98.3017 121.483C96.6946 121.772 94.8464 121.917 92.7571 121.917C90.8286 121.917 89.0929 121.612 87.55 121.001C86.0072 120.39 84.6894 119.522 83.5965 118.397C82.5037 117.272 81.6519 115.906 81.0412 114.299C80.4626 112.66 80.1733 110.828 80.1733 108.803C80.1733 106.874 80.4144 105.106 80.8966 103.499C81.4108 101.892 82.1501 100.51 83.1144 99.3529C84.0787 98.1958 85.2519 97.2958 86.634 96.6529C88.0482 96.0101 89.6554 95.6887 91.4554 95.6887C92.9018 95.6887 94.1714 95.8815 95.2642 96.2672C96.3892 96.6529 97.2249 97.0226 97.7713 97.3761V84.6959ZM134.14 90.9155C133.368 91.8155 132.468 92.9083 131.44 94.194C130.443 95.4797 129.366 96.894 128.209 98.4368C127.052 99.9475 125.863 101.571 124.641 103.306C123.452 105.01 122.263 106.746 121.074 108.513C119.916 110.249 118.808 111.969 117.747 113.672C116.718 115.376 115.786 116.983 114.95 118.494H134.622V121.338H111.383V118.879C112.09 117.497 112.926 115.987 113.89 114.347C114.886 112.676 115.947 110.972 117.072 109.237C118.197 107.469 119.37 105.701 120.591 103.933C121.813 102.165 123.018 100.478 124.208 98.8708C125.397 97.2315 126.522 95.7208 127.582 94.3387C128.675 92.9565 129.672 91.7673 130.572 90.7709H112.299V87.9263H134.14V90.9155ZM157.657 108.899C157.657 110.86 157.368 112.644 156.789 114.251C156.243 115.858 155.455 117.224 154.427 118.349C153.431 119.474 152.241 120.358 150.859 121.001C149.477 121.612 147.95 121.917 146.279 121.917C144.607 121.917 143.081 121.612 141.699 121.001C140.316 120.358 139.111 119.474 138.082 118.349C137.086 117.224 136.299 115.858 135.72 114.251C135.174 112.644 134.9 110.86 134.9 108.899C134.9 106.939 135.174 105.155 135.72 103.547C136.299 101.94 137.086 100.574 138.082 99.4493C139.111 98.2922 140.316 97.4083 141.699 96.7976C143.081 96.1547 144.607 95.8333 146.279 95.8333C147.95 95.8333 149.477 96.1547 150.859 96.7976C152.241 97.4083 153.431 98.2922 154.427 99.4493C155.455 100.574 156.243 101.94 156.789 103.547C157.368 105.155 157.657 106.939 157.657 108.899ZM154.331 108.899C154.331 105.781 153.607 103.306 152.161 101.474C150.714 99.61 148.754 98.6779 146.279 98.6779C143.804 98.6779 141.843 99.61 140.397 101.474C138.95 103.306 138.227 105.781 138.227 108.899C138.227 112.017 138.95 114.492 140.397 116.324C141.843 118.156 143.804 119.072 146.279 119.072C148.754 119.072 150.714 118.156 152.161 116.324C153.607 114.492 154.331 112.017 154.331 108.899ZM163.493 97.2797C164.425 97.0226 165.678 96.7333 167.253 96.4119C168.828 96.0904 170.757 95.9297 173.039 95.9297C174.935 95.9297 176.51 96.2029 177.764 96.7494C179.05 97.2958 180.062 98.0833 180.801 99.1118C181.573 100.108 182.119 101.314 182.441 102.728C182.762 104.142 182.923 105.701 182.923 107.405V121.338H179.789V108.417C179.789 106.649 179.66 105.155 179.403 103.933C179.178 102.712 178.776 101.715 178.198 100.944C177.651 100.173 176.912 99.6261 175.98 99.3047C175.08 98.9511 173.939 98.7743 172.557 98.7743C171.078 98.7743 169.793 98.8547 168.7 99.0154C167.639 99.1761 166.948 99.3208 166.627 99.4493V121.338H163.493V97.2797ZM188.484 108.851C188.484 106.665 188.789 104.769 189.4 103.162C190.042 101.523 190.862 100.156 191.858 99.0636C192.887 97.9708 194.044 97.1672 195.33 96.6529C196.648 96.1065 197.998 95.8333 199.38 95.8333C202.433 95.8333 204.86 96.8297 206.66 98.8225C208.492 100.815 209.408 103.885 209.408 108.031C209.408 108.289 209.392 108.546 209.36 108.803C209.36 109.06 209.344 109.301 209.312 109.526H191.81C191.907 112.58 192.662 114.926 194.076 116.565C195.491 118.204 197.741 119.024 200.826 119.024C202.53 119.024 203.88 118.863 204.876 118.542C205.873 118.221 206.596 117.947 207.046 117.722L207.624 120.422C207.174 120.679 206.323 120.985 205.069 121.338C203.848 121.692 202.401 121.869 200.73 121.869C198.544 121.869 196.68 121.547 195.137 120.904C193.594 120.262 192.325 119.362 191.328 118.204C190.332 117.047 189.608 115.681 189.159 114.106C188.709 112.499 188.484 110.747 188.484 108.851ZM206.178 106.874C206.114 104.271 205.503 102.246 204.346 100.799C203.189 99.3529 201.549 98.6297 199.428 98.6297C198.303 98.6297 197.291 98.8547 196.391 99.3047C195.523 99.7547 194.751 100.365 194.076 101.137C193.433 101.876 192.919 102.744 192.533 103.74C192.18 104.737 191.971 105.781 191.907 106.874H206.178Z" fill="#263238"/>
<path d="M11.2177 143.754C10.6713 143.754 10.1677 143.679 9.70703 143.529C9.25704 143.368 8.86061 143.116 8.51776 142.773C8.17491 142.42 7.90705 141.954 7.7142 141.375C7.52134 140.797 7.42492 140.095 7.42492 139.27V133.018H8.75883V139.302C8.75883 140.127 8.86597 140.781 9.08025 141.263C9.30525 141.734 9.59989 142.072 9.96417 142.275C10.3392 142.468 10.757 142.565 11.2177 142.565C11.6784 142.565 12.0963 142.468 12.4713 142.275C12.857 142.072 13.1623 141.734 13.3873 141.263C13.6123 140.781 13.7248 140.127 13.7248 139.302V133.018H14.9945V139.27C14.9945 140.095 14.898 140.797 14.7052 141.375C14.523 141.954 14.2605 142.42 13.9177 142.773C13.5748 143.116 13.1731 143.368 12.7123 143.529C12.2516 143.679 11.7534 143.754 11.2177 143.754ZM17.1887 143.561V133.018H18.6512L22.3958 139.575C22.5993 139.929 22.7922 140.298 22.9743 140.684C23.1565 141.059 23.3386 141.445 23.5208 141.841H23.585C23.5529 141.295 23.5154 140.738 23.4725 140.17C23.4297 139.591 23.4083 139.034 23.4083 138.498V133.018H24.694V143.561H23.2315L19.4869 137.004C19.294 136.65 19.0958 136.281 18.8922 135.895C18.6994 135.509 18.5172 135.124 18.3458 134.738H18.2815C18.3244 135.263 18.3619 135.804 18.394 136.361C18.4369 136.918 18.4583 137.481 18.4583 138.048V143.561H17.1887ZM26.9513 143.561V133.018H28.2852V143.561H26.9513ZM32.716 143.561V134.159H29.5339V133.018H37.2481V134.159H34.066V143.561H32.716ZM38.5038 143.561V133.018H44.5787V134.143H39.8377V137.454H43.8394V138.595H39.8377V142.42H44.7394V143.561H38.5038ZM46.336 143.561V133.018H48.9717C50.0538 133.018 50.9645 133.222 51.7038 133.629C52.4431 134.036 53.0002 134.631 53.3752 135.413C53.7609 136.184 53.9538 137.127 53.9538 138.241C53.9538 139.356 53.7609 140.315 53.3752 141.118C53.0002 141.911 52.4484 142.516 51.7199 142.934C50.9913 143.352 50.0967 143.561 49.036 143.561H46.336ZM47.6699 142.468H48.8753C49.7002 142.468 50.3859 142.302 50.9324 141.97C51.4788 141.627 51.8859 141.145 52.1538 140.523C52.4216 139.902 52.5556 139.141 52.5556 138.241C52.5556 137.363 52.4216 136.613 52.1538 135.991C51.8859 135.37 51.4788 134.904 50.9324 134.593C50.3859 134.272 49.7002 134.111 48.8753 134.111H47.6699V142.468ZM60.3409 143.561V134.159H57.1588V133.018H64.873V134.159H61.6909V143.561H60.3409ZM69.6413 143.754C68.7627 143.754 67.9806 143.529 67.2949 143.079C66.6199 142.629 66.0895 141.991 65.7038 141.166C65.3288 140.341 65.1413 139.366 65.1413 138.241C65.1413 137.116 65.3288 136.152 65.7038 135.349C66.0895 134.534 66.6199 133.913 67.2949 133.484C67.9806 133.045 68.7627 132.825 69.6413 132.825C70.5306 132.825 71.3127 133.045 71.9877 133.484C72.6627 133.913 73.193 134.534 73.5787 135.349C73.9645 136.152 74.1573 137.116 74.1573 138.241C74.1573 139.366 73.9645 140.341 73.5787 141.166C73.193 141.991 72.6627 142.629 71.9877 143.079C71.3127 143.529 70.5306 143.754 69.6413 143.754ZM69.6413 142.565C70.2734 142.565 70.8198 142.388 71.2806 142.034C71.752 141.681 72.1163 141.182 72.3734 140.54C72.6305 139.886 72.7591 139.12 72.7591 138.241C72.7591 137.374 72.6305 136.624 72.3734 135.991C72.1163 135.359 71.752 134.872 71.2806 134.529C70.8198 134.175 70.2734 133.999 69.6413 133.999C69.0199 133.999 68.4734 134.175 68.002 134.529C67.5306 134.872 67.1663 135.359 66.9092 135.991C66.652 136.624 66.5235 137.374 66.5235 138.241C66.5235 139.12 66.652 139.886 66.9092 140.54C67.1663 141.182 67.5306 141.681 68.002 142.034C68.4734 142.388 69.0199 142.565 69.6413 142.565ZM78.356 143.561V133.018H80.0435L82.0364 138.659C82.1649 139.013 82.2828 139.366 82.3899 139.72C82.5078 140.073 82.6256 140.448 82.7435 140.845H82.8078C82.9256 140.448 83.0381 140.073 83.1453 139.72C83.2524 139.366 83.3649 139.013 83.4828 138.659L85.4756 133.018H87.147V143.561H85.8934V137.759C85.8934 137.449 85.9042 137.1 85.9256 136.715C85.947 136.329 85.9684 135.949 85.9899 135.574C86.022 135.188 86.0542 134.84 86.0863 134.529H86.022L85.2024 137.068L83.2256 142.516H82.2453L80.2685 137.068L79.4489 134.529H79.3846C79.4167 134.84 79.4435 135.188 79.465 135.574C79.4971 135.949 79.5239 136.329 79.5453 136.715C79.5667 137.1 79.5775 137.449 79.5775 137.759V143.561H78.356ZM87.9917 143.561L91.5596 133.018H93.0703L96.6381 143.561H95.2238L93.3756 137.663C93.1828 137.074 93.0006 136.49 92.8292 135.911C92.6578 135.322 92.4863 134.722 92.3149 134.111H92.2506C92.0899 134.722 91.9238 135.322 91.7524 135.911C91.581 136.49 91.3988 137.074 91.206 137.663L89.3417 143.561H87.9917ZM89.856 140.347V139.286H94.7256V140.347H89.856ZM97.4733 143.561V133.018H98.8072V138.306H98.8554L103.243 133.018H104.754L101.459 137.036L105.268 143.561H103.773L100.623 138.081L98.8072 140.218V143.561H97.4733ZM106.137 143.561V133.018H112.212V134.143H107.471V137.454H111.473V138.595H107.471V142.42H112.373V143.561H106.137ZM118.248 143.561V139.479L115.082 133.018H116.512L117.878 135.991C118.039 136.377 118.199 136.757 118.36 137.132C118.532 137.507 118.708 137.893 118.89 138.29H118.955C119.148 137.893 119.33 137.507 119.501 137.132C119.683 136.757 119.855 136.377 120.015 135.991L121.365 133.018H122.764L119.582 139.479V143.561H118.248ZM127.214 143.754C126.335 143.754 125.553 143.529 124.868 143.079C124.193 142.629 123.662 141.991 123.277 141.166C122.902 140.341 122.714 139.366 122.714 138.241C122.714 137.116 122.902 136.152 123.277 135.349C123.662 134.534 124.193 133.913 124.868 133.484C125.553 133.045 126.335 132.825 127.214 132.825C128.103 132.825 128.885 133.045 129.56 133.484C130.235 133.913 130.766 134.534 131.151 135.349C131.537 136.152 131.73 137.116 131.73 138.241C131.73 139.366 131.537 140.341 131.151 141.166C130.766 141.991 130.235 142.629 129.56 143.079C128.885 143.529 128.103 143.754 127.214 143.754ZM127.214 142.565C127.846 142.565 128.393 142.388 128.853 142.034C129.325 141.681 129.689 141.182 129.946 140.54C130.203 139.886 130.332 139.12 130.332 138.241C130.332 137.374 130.203 136.624 129.946 135.991C129.689 135.359 129.325 134.872 128.853 134.529C128.393 134.175 127.846 133.999 127.214 133.999C126.593 133.999 126.046 134.175 125.575 134.529C125.103 134.872 124.739 135.359 124.482 135.991C124.225 136.624 124.096 137.374 124.096 138.241C124.096 139.12 124.225 139.886 124.482 140.54C124.739 141.182 125.103 141.681 125.575 142.034C126.046 142.388 126.593 142.565 127.214 142.565ZM137.099 143.754C136.552 143.754 136.049 143.679 135.588 143.529C135.138 143.368 134.742 143.116 134.399 142.773C134.056 142.42 133.788 141.954 133.595 141.375C133.402 140.797 133.306 140.095 133.306 139.27V133.018H134.64V139.302C134.64 140.127 134.747 140.781 134.961 141.263C135.186 141.734 135.481 142.072 135.845 142.275C136.22 142.468 136.638 142.565 137.099 142.565C137.559 142.565 137.977 142.468 138.352 142.275C138.738 142.072 139.043 141.734 139.268 141.263C139.493 140.781 139.606 140.127 139.606 139.302V133.018H140.876V139.27C140.876 140.095 140.779 140.797 140.586 141.375C140.404 141.954 140.142 142.42 139.799 142.773C139.456 143.116 139.054 143.368 138.593 143.529C138.133 143.679 137.634 143.754 137.099 143.754ZM143.07 143.561V133.018H146.364C147.082 133.018 147.72 133.115 148.277 133.307C148.834 133.49 149.268 133.8 149.579 134.24C149.9 134.668 150.061 135.247 150.061 135.975C150.061 136.682 149.9 137.266 149.579 137.727C149.268 138.188 148.834 138.536 148.277 138.772C147.72 138.997 147.082 139.109 146.364 139.109H144.404V143.561H143.07ZM144.404 138.016H146.171C146.996 138.016 147.629 137.85 148.068 137.518C148.507 137.175 148.727 136.661 148.727 135.975C148.727 135.29 148.507 134.807 148.068 134.529C147.629 134.24 146.996 134.095 146.171 134.095H144.404V138.016ZM148.855 143.561L146.107 138.74L147.152 138.032L150.366 143.561H148.855ZM154.151 143.561V133.018H160.226V134.143H155.485V137.711H159.503V138.836H155.485V143.561H154.151ZM165.195 143.754C164.648 143.754 164.145 143.679 163.684 143.529C163.234 143.368 162.837 143.116 162.495 142.773C162.152 142.42 161.884 141.954 161.691 141.375C161.498 140.797 161.402 140.095 161.402 139.27V133.018H162.736V139.302C162.736 140.127 162.843 140.781 163.057 141.263C163.282 141.734 163.577 142.072 163.941 142.275C164.316 142.468 164.734 142.565 165.195 142.565C165.655 142.565 166.073 142.468 166.448 142.275C166.834 142.072 167.139 141.734 167.364 141.263C167.589 140.781 167.702 140.127 167.702 139.302V133.018H168.971V139.27C168.971 140.095 168.875 140.797 168.682 141.375C168.5 141.954 168.237 142.42 167.895 142.773C167.552 143.116 167.15 143.368 166.689 143.529C166.228 143.679 165.73 143.754 165.195 143.754ZM173.351 143.561V134.159H170.169V133.018H177.883V134.159H174.701V143.561H173.351ZM182.884 143.754C182.337 143.754 181.834 143.679 181.373 143.529C180.923 143.368 180.526 143.116 180.184 142.773C179.841 142.42 179.573 141.954 179.38 141.375C179.187 140.797 179.091 140.095 179.091 139.27V133.018H180.425V139.302C180.425 140.127 180.532 140.781 180.746 141.263C180.971 141.734 181.266 142.072 181.63 142.275C182.005 142.468 182.423 142.565 182.884 142.565C183.344 142.565 183.762 142.468 184.137 142.275C184.523 142.072 184.828 141.734 185.053 141.263C185.278 140.781 185.391 140.127 185.391 139.302V133.018H186.66V139.27C186.66 140.095 186.564 140.797 186.371 141.375C186.189 141.954 185.926 142.42 185.584 142.773C185.241 143.116 184.839 143.368 184.378 143.529C183.917 143.679 183.419 143.754 182.884 143.754ZM188.855 143.561V133.018H192.149C192.867 133.018 193.504 133.115 194.062 133.307C194.619 133.49 195.053 133.8 195.363 134.24C195.685 134.668 195.846 135.247 195.846 135.975C195.846 136.682 195.685 137.266 195.363 137.727C195.053 138.188 194.619 138.536 194.062 138.772C193.504 138.997 192.867 139.109 192.149 139.109H190.188V143.561H188.855ZM190.188 138.016H191.956C192.781 138.016 193.413 137.85 193.853 137.518C194.292 137.175 194.512 136.661 194.512 135.975C194.512 135.29 194.292 134.807 193.853 134.529C193.413 134.24 192.781 134.095 191.956 134.095H190.188V138.016ZM194.64 143.561L191.892 138.74L192.937 138.032L196.151 143.561H194.64ZM197.362 143.561V133.018H203.437V134.143H198.696V137.454H202.697V138.595H198.696V142.42H203.597V143.561H197.362Z" fill="#263238"/>
</svg>
